<?xml version="1.0" encoding="utf-8"?>
<!-- Generator: Adobe Illustrator 25.0.0, SVG Export Plug-In . SVG Version: 6.00 Build 0)  -->
<svg version="1.1" xmlns="http://www.w3.org/2000/svg" xmlns:xlink="http://www.w3.org/1999/xlink" x="0px" y="0px"
	 viewBox="0 0 500 500" style="enable-background:new 0 0 500 500;" xml:space="preserve">
<g id="Background_Complete">
	<g>
		<g>
			<rect x="79.85" y="49.91" style="fill:#E0E0E0;" width="159.91" height="200.93"/>
			<rect x="85.7" y="55.66" style="fill:#FAFAFA;" width="149.23" height="189.44"/>
			<polygon style="fill:#F5F5F5;" points="85.7,195.11 115.72,195.11 119.58,212.78 132.61,212.78 143.71,162.54 180.85,162.54 
				180.85,128.29 207.87,128.29 207.87,185.52 234.93,185.52 234.93,245.11 85.7,245.11 			"/>
			<rect x="157.87" y="55.66" style="fill:#E0E0E0;" width="4.82" height="187.88"/>
			<rect x="85.7" y="147.44" style="fill:#E0E0E0;" width="149.23" height="4.94"/>
		</g>
		<g>
			<polygon style="fill:#E0E0E0;" points="391.64,103.48 401.24,128.03 395.27,128.01 390.49,112.92 			"/>
			<g>
				<g>
					<polygon style="fill:#EBEBEB;" points="358.87,80.79 355.57,127.84 389.63,128.55 393.46,80.79 					"/>
					<polygon style="fill:#FAFAFA;" points="362.27,84.58 359.53,123.74 384.85,124.93 388.39,84.35 					"/>
				</g>
				<polygon style="fill:#E0E0E0;" points="367.83,90.12 365.78,117.64 379.74,117.64 382.21,90.12 				"/>
			</g>
		</g>
		<polygon style="fill:#EBEBEB;" points="308.28,128.21 308.28,89.52 336.61,89.52 336.61,128.18 		"/>
		<path style="fill:#E0E0E0;" d="M324.39,89.52c0,0,6.83-49.95,4.92-49.88c-1.91,0.07-6.72,45.54-6.72,45.54s-0.2-37.66-2-37.46
			c-1.8,0.2,0,39.86,0,39.86s-3.08-32.19-4.74-31.42c-1.67,0.77,0.71,33.35,0.71,33.35H324.39"/>
		<path style="fill:#EBEBEB;" d="M319.24,89.52c0,0,2.37-24.89,3.15-23.19c0.78,1.7,0,14.82,0,14.82s6.56-32.17,8.28-31.08
			c1.72,1.09-6.71,34.92-6.71,34.92s6.4-19.31,7.81-17.28c1.4,2.03-5.31,20.15-5.31,20.15s6.87-12.8,7.34-11.09
			c0.47,1.72-3.28,12.74-3.28,12.74H319.24z"/>
		<path style="fill:#EBEBEB;" d="M315.2,89.67c0,0-15.15-29.74-13.27-28.81c1.87,0.92,11.56,20.13,11.56,20.13s-6.41-18.54-5-19.11
			c1.41-0.57,8.44,20.83,8.44,20.83l1.58,6.97H315.2z"/>
		<polygon style="fill:#E0E0E0;" points="321.4,89.59 322.11,128.27 308.64,128.27 308.38,89.46 		"/>
		<polygon style="fill:#F5F5F5;" points="308.32,92.94 321.36,93.15 336.61,92.94 337.09,89.24 307.95,89.24 		"/>
		<rect x="283.91" y="127.58" style="fill:#E0E0E0;" width="141.66" height="6.22"/>
	</g>
</g>
<g id="Background_Simple" style="display:none;">
	<g style="display:inline;">
		<path style="fill:#EBEBEB;" d="M418.45,114.09c26.25,49.75,17.25,113.72-14.28,160.3c-31.53,46.58-83.99,76.73-139.16,87.71
			c-39.38,7.84-81.74,6.24-117.72-11.58c-35.98-17.82-64.27-53.67-66.43-93.76c-0.81-15.14,2.4-31.22,12.5-42.53
			c16.14-18.06,43.68-18.69,67.89-17.95s51.73,0.18,67.95-17.8c12.46-13.82,14.29-33.86,20.86-51.27
			c11.16-29.6,38.1-52.72,69.05-59.26c14.68-3.1,30.04-2.43,44.5,1.54c23.52,6.46,43.21,22.64,54.63,44.19
			C418.31,113.82,418.38,113.96,418.45,114.09z"/>
	</g>
</g>
<g id="Device">
	<g>
		<path style="fill:#455A64;" d="M310.46,351.71c-1.2-1.32,1.63-9.09,15.06-9.64c13.43-0.55,18.8,4.34,18.83,9.64
			C344.36,354.07,310.46,351.71,310.46,351.71z"/>
		<g>
			<g>
				<polygon style="fill:#F5F5F5;" points="303.83,148.43 288.91,240.71 425.17,240.71 441.59,147.45 				"/>
				<path style="fill:#E0E0E0;" d="M302.47,156.83c0.05-0.33,137.55-0.52,137.55-0.52l1.56-8.86l-137.75,0.98L302.47,156.83"/>
				<path style="fill:#263238;" d="M309.58,152.59c0,0.7-0.57,1.26-1.26,1.26s-1.26-0.57-1.26-1.26c0-0.7,0.57-1.26,1.26-1.26
					S309.58,151.89,309.58,152.59z"/>
				<path style="fill:#263238;" d="M315.79,152.59c0,0.7-0.57,1.26-1.26,1.26c-0.7,0-1.26-0.57-1.26-1.26c0-0.7,0.57-1.26,1.26-1.26
					C315.22,151.33,315.79,151.89,315.79,152.59z"/>
				<path style="fill:#263238;" d="M322,152.59c0,0.7-0.57,1.26-1.26,1.26c-0.7,0-1.26-0.57-1.26-1.26c0-0.7,0.57-1.26,1.26-1.26
					C321.43,151.33,322,151.89,322,152.59z"/>
			</g>
			<path style="fill:#501FDA;" d="M337.39,198.28l-17.06,19.67c-6.69-4.73-10.6-12-10.6-19.67c0-13.71,12.49-24.99,27.66-24.99
				c15.17,0,27.66,11.28,27.66,24.99H337.39z"/>
			<g>
				<path style="fill:#263238;" d="M339.58,201.41c0,0.01-0.1,0.14-0.29,0.39c-0.22,0.27-0.51,0.62-0.88,1.07
					c-0.8,0.95-1.94,2.29-3.38,3.99c-2.95,3.44-7.12,8.3-12.14,14.15l-0.04-0.32c3.43,2.39,7.82,4.18,12.7,4.72
					c4.86,0.57,10.19-0.11,15.11-2.28c4.73-2.01,8.64-5.36,11.37-9.16c1.33-1.93,2.36-3.98,3.09-6.05c0.71-2.08,1.04-4.18,1.18-6.2
					l0.22,0.23c-8.05-0.13-14.76-0.25-19.5-0.33c-2.33-0.05-4.18-0.09-5.48-0.12c-0.61-0.02-1.09-0.04-1.45-0.05
					C339.76,201.44,339.59,201.42,339.58,201.41c0-0.01,0.16-0.02,0.48-0.03c0.36,0,0.83-0.01,1.43-0.01c1.3,0,3.13,0,5.45,0
					c4.76,0.03,11.5,0.08,19.58,0.13l0.24,0l-0.02,0.23c-0.14,2.06-0.46,4.2-1.18,6.33c-0.74,2.12-1.78,4.21-3.13,6.19
					c-2.77,3.88-6.76,7.29-11.57,9.35c-5.01,2.2-10.43,2.9-15.37,2.3c-4.96-0.56-9.42-2.4-12.89-4.86l-0.2-0.14l0.16-0.18
					c5.1-5.82,9.34-10.66,12.34-14.08c1.47-1.66,2.63-2.96,3.45-3.89c0.38-0.42,0.68-0.75,0.91-1.01
					C339.47,201.51,339.58,201.4,339.58,201.41z"/>
			</g>
			<circle style="fill:#263238;" cx="349.15" cy="183.43" r="1.55"/>
			<g>
				<path style="fill:#263238;" d="M381.49,172.09c0,0.04-0.52,0.07-1.46,0.1c-1.03,0.02-2.37,0.05-3.97,0.08
					c-3.35,0.05-7.98,0.08-13.09,0.08c-0.85,0-1.68,0-2.47,0l0.18-0.08c-3.21,3.2-6.07,6.02-8.14,8.02
					c-0.99,0.94-1.81,1.73-2.45,2.34c-0.58,0.54-0.91,0.83-0.94,0.8c-0.02-0.02,0.26-0.35,0.8-0.94c0.61-0.64,1.4-1.46,2.34-2.45
					c2-2.07,4.82-4.93,8.02-8.14l0.08-0.08l0.11,0c0.79,0,1.62,0,2.47,0c5.11,0,9.74,0.03,13.09,0.08c1.6,0.03,2.93,0.06,3.97,0.08
					C380.97,172.02,381.49,172.05,381.49,172.09z"/>
			</g>
			<g>
				<path style="fill:#263238;" d="M416.61,191.57c-0.01-0.01,0.02-0.19,0.07-0.52c0.06-0.36,0.14-0.86,0.25-1.48
					c0.23-1.32,0.56-3.2,0.98-5.6c0.87-4.83,2.11-11.71,3.61-20.05l0.21,0.25c-10.86,0.01-24.26,0.03-38.73,0.05
					c-0.06,0.05,0.48-0.4,0.25-0.21l0,0.01l0,0.01l-0.01,0.03l-0.01,0.06l-0.02,0.12l-0.04,0.23l-0.09,0.46l-0.17,0.92
					c-0.11,0.61-0.23,1.23-0.34,1.84c-0.23,1.22-0.45,2.43-0.68,3.63c-0.45,2.4-0.89,4.76-1.32,7.08
					c-0.86,4.62-1.69,9.05-2.47,13.21l-0.23-0.28c11.41,0.05,21.06,0.08,27.89,0.11c3.39,0.03,6.09,0.05,7.97,0.06
					c0.9,0.01,1.61,0.02,2.13,0.03c0.23,0.01,0.41,0.01,0.55,0.01C416.54,191.56,416.6,191.56,416.61,191.57
					c0,0.01-0.05,0.01-0.17,0.01c-0.14,0-0.31,0.01-0.53,0.01c-0.5,0.01-1.2,0.02-2.08,0.03c-1.87,0.02-4.55,0.04-7.92,0.06
					c-6.87,0.03-16.56,0.07-28.03,0.11l-0.28,0l0.05-0.28c0.77-4.16,1.58-8.59,2.43-13.22c0.43-2.31,0.86-4.68,1.31-7.08
					c0.22-1.2,0.45-2.41,0.67-3.63c0.11-0.61,0.23-1.22,0.34-1.84l0.17-0.92l0.09-0.46l0.04-0.23l0.02-0.12l0.01-0.06l0.01-0.03
					l0-0.01l0-0.01c-0.23,0.19,0.31-0.26,0.26-0.22c14.47,0.02,27.87,0.03,38.73,0.05l0.26,0l-0.05,0.25
					c-1.6,8.37-2.92,15.28-3.84,20.13c-0.46,2.37-0.83,4.23-1.08,5.54c-0.12,0.61-0.22,1.08-0.29,1.44
					C416.65,191.42,416.61,191.58,416.61,191.57z"/>
			</g>
			<g>
				<circle style="fill:#263238;" cx="351.58" cy="214.61" r="1.55"/>
				<g>
					<path style="fill:#263238;" d="M379.72,214.61c0,0.14-6.3,0.26-14.07,0.26c-7.77,0-14.07-0.12-14.07-0.26s6.3-0.26,14.07-0.26
						C373.42,214.35,379.72,214.47,379.72,214.61z"/>
				</g>
			</g>
			<g>
				<path style="fill:#263238;" d="M416.61,226.69c-0.01-0.01,0.02-0.14,0.07-0.38c0.06-0.27,0.14-0.63,0.25-1.07
					c0.23-0.97,0.56-2.33,0.98-4.07c0.87-3.54,2.11-8.59,3.64-14.8l0.19,0.24c-10.57,0.02-24.59,0.04-39.94,0.06
					c-0.23,0.18,0.3-0.24,0.25-0.19l0,0.01l0,0.01l-0.01,0.02l-0.01,0.04l-0.02,0.08l-0.04,0.17l-0.08,0.34l-0.17,0.67l-0.34,1.33
					c-0.22,0.89-0.45,1.77-0.67,2.64c-0.44,1.75-0.88,3.47-1.31,5.17c-0.86,3.39-1.69,6.67-2.49,9.8l-0.24-0.3
					c11.63,0.04,21.58,0.08,28.66,0.11c3.52,0.03,6.32,0.05,8.28,0.07c0.94,0.01,1.68,0.02,2.22,0.03c0.23,0.01,0.42,0.01,0.58,0.02
					C416.53,226.68,416.6,226.68,416.61,226.69c0,0.01-0.06,0.01-0.18,0.02c-0.15,0-0.33,0.01-0.55,0.02
					c-0.53,0.01-1.25,0.02-2.18,0.03c-1.95,0.02-4.74,0.04-8.23,0.07c-7.12,0.03-17.12,0.07-28.8,0.11l-0.31,0l0.08-0.31
					c0.79-3.13,1.61-6.42,2.46-9.81c0.43-1.7,0.86-3.42,1.3-5.17c0.22-0.87,0.44-1.75,0.67-2.64l0.34-1.33l0.17-0.67l0.08-0.34
					l0.04-0.17l0.02-0.08l0.01-0.04l0.01-0.02l0-0.01l0-0.01c-0.05,0.04,0.48-0.38,0.26-0.2c15.35,0.02,29.37,0.05,39.94,0.06
					l0.25,0l-0.06,0.24c-1.62,6.23-2.93,11.3-3.85,14.85c-0.46,1.72-0.81,3.06-1.07,4.01c-0.12,0.43-0.21,0.77-0.28,1.03
					C416.65,226.58,416.61,226.7,416.61,226.69z"/>
			</g>
			<g>
				<path style="fill:#263238;" d="M413.46,172.44c0,0.14-5.93,0.26-13.25,0.26c-7.32,0-13.25-0.12-13.25-0.26
					c0-0.14,5.93-0.26,13.25-0.26C407.53,172.18,413.46,172.3,413.46,172.44z"/>
			</g>
			<g>
				<path style="fill:#263238;" d="M413.15,176.78c0,0.14-5.97,0.26-13.33,0.26c-7.36,0-13.33-0.12-13.33-0.26
					c0-0.14,5.97-0.26,13.33-0.26C407.19,176.52,413.15,176.64,413.15,176.78z"/>
			</g>
			<g>
				<path style="fill:#263238;" d="M412.38,180.97c0,0.14-5.76,0.26-12.86,0.26c-7.1,0-12.86-0.12-12.86-0.26s5.76-0.26,12.86-0.26
					C406.62,180.71,412.38,180.82,412.38,180.97z"/>
			</g>
			<g>
				<path style="fill:#263238;" d="M412.84,214.13c0,0.14-5.65,0.26-12.63,0.26c-6.98,0-12.63-0.12-12.63-0.26
					c0-0.14,5.65-0.26,12.63-0.26C407.19,213.87,412.84,213.99,412.84,214.13z"/>
			</g>
			<g>
				<path style="fill:#263238;" d="M411.29,218.93c0,0.14-4.82,0.26-10.77,0.26c-5.95,0-10.77-0.12-10.77-0.26
					c0-0.14,4.82-0.26,10.77-0.26C406.47,218.67,411.29,218.79,411.29,218.93z"/>
			</g>
		</g>
		<g>
			<path style="fill:#455A64;" d="M250.34,319.4c-0.49,2.81-13.83,32.34-5.21,32.34s43.27,0,43.27,0s-4.47-4.21,9.06-32.34H250.34z"
				/>
			<polygon style="fill:#455A64;" points="222.34,220.87 204.65,324.25 353.86,324.25 372.16,217.24 			"/>
			<polygon style="fill:#FAFAFA;" points="227.41,225.91 212.5,318.19 348.75,318.19 365.17,224.93 			"/>
			<polygon style="fill:#263238;" points="372.16,217.24 374.98,219.14 355.98,327.06 208.58,327.06 204.65,324.25 353.86,324.25 
							"/>
			<path style="fill:#EBEBEB;" d="M226.06,234.31c0.05-0.33,137.55-0.52,137.55-0.52l1.56-8.86l-137.75,0.98L226.06,234.31"/>
			<g>
				<path style="fill:#263238;" d="M327.28,310.01c-0.01,0.01,0-0.08,0.03-0.25c0.03-0.2,0.07-0.46,0.12-0.78
					c0.12-0.72,0.29-1.74,0.51-3.03c0.46-2.69,1.12-6.54,1.95-11.33c1.7-9.71,4.07-23.2,6.75-38.53l0.04-0.21h0.22
					c3.42,0,7,0,10.65,0h0.08h0.31l-0.06,0.31c-4.16,22.59-7.82,42.44-9.92,53.85l-0.02,0.12l-0.12,0
					c-3.35-0.04-5.99-0.06-7.83-0.08c-0.87-0.01-1.54-0.03-2.04-0.03c-0.21-0.01-0.38-0.01-0.51-0.01
					C327.33,310.02,327.28,310.01,327.28,310.01c0,0,0.07-0.01,0.19-0.01c0.14,0,0.32-0.01,0.54-0.01c0.5-0.01,1.19-0.02,2.07-0.03
					c1.82-0.02,4.43-0.05,7.74-0.08l-0.14,0.12c2.05-11.43,5.62-31.29,9.69-53.9l0.26,0.31h-0.08c-3.65,0-7.23,0-10.65,0l0.25-0.21
					c-2.77,15.23-5.2,28.64-6.96,38.29c-0.89,4.81-1.6,8.67-2.1,11.37c-0.25,1.32-0.44,2.35-0.58,3.08
					c-0.07,0.33-0.12,0.6-0.16,0.81C327.31,309.91,327.29,310,327.28,310.01z"/>
			</g>
			<g>
				<path style="fill:#263238;" d="M309.97,310.01c-0.01,0.01,0.03-0.24,0.11-0.72c0.09-0.53,0.22-1.24,0.38-2.14
					c0.36-1.92,0.86-4.65,1.49-8.04c1.31-6.93,3.14-16.57,5.23-27.59l0.04-0.21l0.21,0c3.42,0,6.99,0,10.65-0.01h0.08h0.32
					l-0.06,0.31c-3.16,15.67-5.97,29.6-7.75,38.43l-0.03,0.13l-0.13,0c-3.32-0.04-5.97-0.07-7.82-0.09
					c-0.86-0.02-1.54-0.03-2.04-0.04C310.18,310.03,309.95,310.02,309.97,310.01c0.01-0.01,0.27-0.02,0.74-0.03
					c0.51-0.01,1.2-0.02,2.08-0.04c1.83-0.02,4.44-0.05,7.72-0.09l-0.16,0.13c1.74-8.84,4.47-22.78,7.55-38.47l0.26,0.31h-0.08
					c-3.66,0-7.24,0-10.65-0.01l0.25-0.21c-2.17,10.93-4.07,20.48-5.44,27.35c-0.69,3.41-1.25,6.15-1.64,8.08
					c-0.19,0.92-0.34,1.65-0.46,2.19c-0.05,0.23-0.09,0.42-0.13,0.57C309.99,309.93,309.97,310,309.97,310.01z"/>
			</g>
			<g>
				<path style="fill:#263238;" d="M292.65,310.01c-0.01,0.01,0.01-0.1,0.04-0.32c0.04-0.24,0.09-0.56,0.16-0.97
					c0.15-0.88,0.37-2.14,0.64-3.76c0.58-3.32,1.41-8.09,2.44-14.01c2.12-11.97,5.07-28.61,8.41-47.44l0.04-0.21l0.22,0
					c3.41,0,7,0,10.65,0h0.08h0.31l-0.06,0.31c-5.22,28.58-9.83,53.5-12.27,66.43l-0.02,0.11l-0.11,0c-3.4-0.03-6.05-0.06-7.87-0.08
					c-0.86-0.01-1.53-0.02-2.01-0.03C292.86,310.02,292.65,310.01,292.65,310.01s0.25-0.01,0.71-0.02c0.49-0.01,1.17-0.02,2.04-0.03
					c1.8-0.02,4.42-0.04,7.79-0.08l-0.13,0.11c2.29-12.96,6.79-37.89,12.01-66.47l0.26,0.31h-0.08c-3.65,0-7.24,0-10.65,0l0.25-0.21
					c-3.42,18.73-6.44,35.29-8.61,47.2c-1.1,5.95-1.99,10.73-2.6,14.05c-0.31,1.64-0.55,2.91-0.72,3.81c-0.08,0.42-0.15,0.75-0.19,1
					C292.68,309.88,292.65,310,292.65,310.01z"/>
			</g>
			<g>
				<path style="fill:#263238;" d="M275.33,310.01c-0.01,0.01,0.01-0.16,0.06-0.5c0.06-0.39,0.14-0.88,0.24-1.5
					c0.23-1.38,0.56-3.3,0.96-5.68c0.87-4.95,2.08-11.82,3.47-19.77l0.04-0.21l0.21,0c3.33,0,6.93-0.01,10.65-0.01h0.08h0.32
					l-0.06,0.31c-2.07,10.8-3.94,20.53-5.25,27.39l-0.03,0.15l-0.15,0c-3.27-0.04-5.91-0.08-7.79-0.1
					c-0.86-0.02-1.54-0.03-2.06-0.04C275.55,310.03,275.32,310.02,275.33,310.01c0.01-0.01,0.27-0.02,0.76-0.03
					c0.53-0.01,1.23-0.03,2.11-0.04c1.86-0.02,4.46-0.06,7.67-0.1l-0.18,0.15c1.28-6.87,3.09-16.61,5.09-27.42l0.26,0.31h-0.08
					c-3.72,0-7.32-0.01-10.65-0.01l0.25-0.21c-1.48,7.85-2.76,14.65-3.68,19.54c-0.47,2.4-0.84,4.33-1.11,5.72
					c-0.13,0.64-0.23,1.15-0.31,1.55C275.39,309.81,275.34,310,275.33,310.01z"/>
			</g>
			<g>
				<path style="fill:#263238;" d="M258.02,310.01c-0.01,0.01,0-0.07,0.02-0.21c0.03-0.17,0.06-0.38,0.09-0.65
					c0.1-0.61,0.23-1.46,0.4-2.53c0.37-2.26,0.89-5.47,1.54-9.47c1.36-8.14,3.24-19.46,5.39-32.35l0.04-0.21l0.22,0
					c3.44,0,7,0,10.65,0h0.08h0.31l-0.05,0.31c-3.3,18.63-6.22,35.1-8,45.14l-0.02,0.13l-0.13,0c-3.33-0.04-5.97-0.07-7.82-0.09
					c-0.86-0.02-1.54-0.03-2.04-0.04C258.24,310.03,258,310.02,258.02,310.01c0.01,0,0.07-0.01,0.2-0.01c0.15,0,0.33-0.01,0.54-0.01
					c0.51-0.01,1.2-0.02,2.08-0.04c1.83-0.02,4.44-0.05,7.73-0.09l-0.15,0.12c1.73-10.05,4.57-26.53,7.78-45.18l0.26,0.31h-0.08
					c-3.65,0-7.22,0-10.65,0l0.25-0.21c-2.23,12.8-4.19,24.03-5.6,32.11c-0.72,4.02-1.29,7.25-1.7,9.51
					c-0.2,1.09-0.36,1.95-0.47,2.58c-0.05,0.27-0.1,0.5-0.13,0.68C258.04,309.92,258.02,310,258.02,310.01z"/>
			</g>
			<g>
				<path style="fill:#263238;" d="M240.7,310.01c-0.01,0.01,0.01-0.09,0.04-0.29c0.04-0.22,0.08-0.51,0.14-0.88
					c0.14-0.81,0.33-1.96,0.57-3.43c0.52-3.04,1.26-7.39,2.19-12.81c1.9-10.95,4.55-26.19,7.55-43.44l0.04-0.21l0.22,0
					c3.42,0,7,0,10.65,0h0.08h0.31l-0.06,0.31c-4.65,25.92-8.77,48.58-11.04,60.79l-0.02,0.11l-0.11,0
					c-3.38-0.03-6.03-0.06-7.86-0.08c-0.86-0.01-1.54-0.02-2.02-0.03c-0.21-0.01-0.37-0.01-0.51-0.01
					C240.75,310.02,240.69,310.01,240.7,310.01c0,0,0.07-0.01,0.19-0.01c0.14,0,0.31-0.01,0.53-0.01c0.49-0.01,1.17-0.02,2.05-0.03
					c1.81-0.02,4.42-0.04,7.77-0.08l-0.13,0.11c2.12-12.24,6.14-34.92,10.8-60.84l0.26,0.31h-0.08c-3.65,0-7.23,0-10.65,0l0.25-0.21
					c-3.08,17.16-5.79,32.31-7.75,43.2c-0.99,5.43-1.79,9.81-2.34,12.85c-0.28,1.49-0.49,2.66-0.65,3.48
					c-0.07,0.38-0.13,0.68-0.18,0.91C240.73,309.89,240.7,310,240.7,310.01z"/>
			</g>
			<path style="fill:#263238;" d="M233.17,230.07c0,0.7-0.57,1.26-1.26,1.26c-0.7,0-1.26-0.57-1.26-1.26c0-0.7,0.57-1.26,1.26-1.26
				C232.6,228.81,233.17,229.37,233.17,230.07z"/>
			<circle style="fill:#263238;" cx="238.11" cy="230.07" r="1.26"/>
			<path style="fill:#263238;" d="M245.58,230.07c0,0.7-0.57,1.26-1.26,1.26c-0.7,0-1.26-0.57-1.26-1.26c0-0.7,0.57-1.26,1.26-1.26
				C245.01,228.81,245.58,229.37,245.58,230.07z"/>
			<g>
				<path style="fill:#263238;" d="M223.38,310.01c-0.01,0.01,0.02-0.25,0.11-0.77c0.09-0.55,0.22-1.31,0.37-2.27
					c0.35-2.04,0.84-4.93,1.45-8.52c1.28-7.34,3.05-17.54,5.08-29.18l0.04-0.21l0.21,0c3.43,0,7,0,10.65-0.01h0.08h0.31l-0.06,0.31
					c-3.09,16.66-5.84,31.44-7.55,40.67l-0.02,0.13l-0.13,0c-3.33-0.04-5.97-0.07-7.83-0.09c-0.86-0.02-1.54-0.03-2.04-0.04
					C223.6,310.03,223.37,310.02,223.38,310.01c0.01,0,0.07-0.01,0.2-0.01c0.15,0,0.33-0.01,0.54-0.02c0.51-0.01,1.2-0.02,2.08-0.04
					c1.83-0.02,4.44-0.05,7.72-0.09l-0.15,0.13c1.67-9.25,4.34-24.04,7.35-40.71l0.26,0.31h-0.08c-3.65,0-7.22,0-10.65-0.01
					l0.25-0.21c-2.11,11.55-3.96,21.67-5.29,28.94c-0.68,3.61-1.22,6.52-1.6,8.56c-0.19,0.98-0.34,1.75-0.45,2.32
					c-0.05,0.24-0.09,0.44-0.12,0.61C223.41,309.93,223.39,310,223.38,310.01z"/>
			</g>
			<g>
				<g>
					<polygon style="fill:#501FDA;" points="340.27,269.31 283.19,269.31 286.45,250.15 343.93,250.15 					"/>
				</g>
				<path style="fill:#501FDA;" d="M283.19,269.31l-1.11,6.69c0,0,7.49-6.95,7.38-6.95c-0.12,0-6.22,0-6.22,0"/>
				<g>
					<path style="fill:#FAFAFA;" d="M335.32,256.81c0,0.14-9.51,0.26-21.23,0.26c-11.73,0-21.23-0.12-21.23-0.26
						c0-0.14,9.5-0.26,21.23-0.26C325.81,256.55,335.32,256.67,335.32,256.81z"/>
				</g>
				<g>
					<path style="fill:#FAFAFA;" d="M334.76,261.44c0,0.14-9.51,0.26-21.23,0.26c-11.73,0-21.23-0.12-21.23-0.26
						c0-0.14,9.5-0.26,21.23-0.26C325.25,261.18,334.76,261.29,334.76,261.44z"/>
				</g>
			</g>
		</g>
	</g>
</g>
<g id="Desk">
	<g>
		<g>
			<rect x="265.5" y="358.35" style="fill:#263238;" width="162.62" height="94.89"/>
			<rect x="265.5" y="358.35" style="fill:#455A64;" width="74.08" height="94.89"/>
			<g>
				<g>
					<path style="fill:#263238;" d="M332.03,390.58c0,0-0.01-0.17-0.02-0.48c0-0.33-0.01-0.79-0.02-1.38
						c-0.01-1.23-0.03-3-0.05-5.27c-0.02-4.57-0.06-11.13-0.1-19.23l0.19,0.19c-15.39,0.02-36.42,0.04-59.59,0.07
						c-0.23,0.23,0.31-0.32,0.26-0.26v0.01v0.01v0.03v0.05v0.11v0.22v0.43l0,0.86l0,1.72c0,1.15,0,2.29,0,3.42c0,2.27,0,4.5,0,6.71
						c0,4.41-0.01,8.69-0.01,12.78l-0.25-0.25c17.28,0.05,32.14,0.09,42.71,0.12c5.28,0.03,9.48,0.05,12.39,0.07
						c1.43,0.01,2.54,0.02,3.32,0.03c0.36,0.01,0.65,0.01,0.87,0.02C331.92,390.57,332.03,390.58,332.03,390.58
						c0.01,0.01-0.09,0.01-0.27,0.02c-0.21,0-0.49,0.01-0.84,0.02c-0.77,0.01-1.86,0.02-3.27,0.03c-2.9,0.02-7.08,0.04-12.33,0.07
						c-10.61,0.03-25.53,0.07-42.88,0.12l-0.25,0l0-0.25c0-4.09-0.01-8.37-0.01-12.78c0-2.21,0-4.44,0-6.71c0-1.13,0-2.27,0-3.42
						l0-1.72v-0.86v-0.43v-0.22v-0.11v-0.05v-0.03v-0.01v-0.01c-0.06,0.05,0.49-0.5,0.26-0.26c23.17,0.03,44.2,0.05,59.59,0.07
						l0.19,0l0,0.19c-0.04,8.15-0.08,14.75-0.1,19.34c-0.02,2.25-0.04,4-0.05,5.22c-0.01,0.57-0.02,1.02-0.02,1.35
						C332.04,390.44,332.04,390.59,332.03,390.58z"/>
				</g>
				<g>
					<path style="fill:#263238;" d="M304.77,377.4c-0.04,0-0.06-0.23-0.18-0.59c-0.12-0.36-0.38-0.88-0.94-1.27
						c-0.53-0.39-1.39-0.6-2.2-0.29c-0.81,0.29-1.5,1.15-1.49,2.15c-0.01,1,0.68,1.87,1.49,2.16c0.82,0.31,1.67,0.11,2.2-0.29
						c0.55-0.39,0.82-0.91,0.93-1.27C304.71,377.63,304.72,377.4,304.77,377.4c0.03,0,0.09,0.23,0.02,0.64
						c-0.07,0.41-0.3,1.02-0.91,1.52c-0.58,0.49-1.59,0.8-2.59,0.45c-0.99-0.32-1.86-1.37-1.85-2.61c-0.01-1.24,0.86-2.29,1.85-2.61
						c1-0.35,2.01-0.05,2.59,0.44c0.6,0.49,0.84,1.11,0.91,1.52C304.85,377.18,304.8,377.4,304.77,377.4z"/>
				</g>
			</g>
			<g>
				<g>
					<path style="fill:#263238;" d="M332.03,419.6c0,0-0.01-0.17-0.02-0.48c0-0.34-0.01-0.79-0.02-1.38c-0.01-1.23-0.03-3-0.05-5.27
						c-0.02-4.57-0.06-11.13-0.1-19.23l0.19,0.19c-15.39,0.02-36.42,0.04-59.59,0.07c-0.23,0.23,0.31-0.32,0.26-0.26v0.01v0.01v0.03
						v0.05v0.11v0.22v0.43l0,0.86l0,1.72c0,1.15,0,2.29,0,3.42c0,2.27,0,4.5,0,6.71c0,4.41-0.01,8.69-0.01,12.78l-0.25-0.25
						c17.28,0.05,32.14,0.09,42.71,0.12c5.28,0.03,9.48,0.05,12.39,0.07c1.43,0.01,2.54,0.02,3.32,0.03
						c0.36,0.01,0.65,0.01,0.87,0.02C331.92,419.59,332.03,419.59,332.03,419.6c0.01,0.01-0.09,0.01-0.27,0.02
						c-0.21,0-0.49,0.01-0.84,0.02c-0.77,0.01-1.86,0.02-3.27,0.03c-2.9,0.02-7.08,0.04-12.33,0.07
						c-10.61,0.03-25.53,0.07-42.88,0.12l-0.25,0l0-0.25c0-4.09-0.01-8.37-0.01-12.78c0-2.2,0-4.44,0-6.71c0-1.13,0-2.27,0-3.42
						l0-1.72v-0.86v-0.43v-0.22v-0.11v-0.05v-0.03v-0.01v-0.01c-0.06,0.05,0.49-0.5,0.26-0.26c23.17,0.03,44.2,0.05,59.59,0.07
						l0.19,0l0,0.19c-0.04,8.15-0.08,14.75-0.1,19.34c-0.02,2.25-0.04,4-0.05,5.22c-0.01,0.57-0.02,1.02-0.02,1.35
						C332.04,419.45,332.04,419.61,332.03,419.6z"/>
				</g>
				<g>
					<path style="fill:#263238;" d="M304.77,406.42c-0.04,0-0.06-0.23-0.18-0.59c-0.12-0.36-0.38-0.88-0.94-1.27
						c-0.53-0.39-1.39-0.6-2.2-0.29c-0.81,0.29-1.5,1.15-1.49,2.15c-0.01,1,0.68,1.87,1.49,2.16c0.82,0.31,1.67,0.11,2.2-0.29
						c0.55-0.39,0.82-0.91,0.93-1.27C304.71,406.64,304.72,406.42,304.77,406.42c0.03,0,0.09,0.23,0.02,0.64
						c-0.07,0.41-0.3,1.02-0.91,1.52c-0.58,0.49-1.59,0.8-2.59,0.45c-0.99-0.32-1.86-1.37-1.85-2.61c-0.01-1.24,0.86-2.29,1.85-2.61
						c1-0.35,2.01-0.05,2.59,0.45c0.6,0.49,0.84,1.11,0.91,1.52C304.85,406.19,304.8,406.42,304.77,406.42z"/>
				</g>
			</g>
			<g>
				<g>
					<path style="fill:#263238;" d="M332.03,448.61c0,0-0.01-0.17-0.02-0.48c0-0.34-0.01-0.79-0.02-1.38
						c-0.01-1.23-0.03-3-0.05-5.27c-0.02-4.57-0.06-11.13-0.1-19.23l0.19,0.19c-15.39,0.02-36.42,0.04-59.59,0.07
						c-0.23,0.23,0.31-0.32,0.26-0.26v0.01v0.01v0.03v0.05v0.11v0.22v0.43l0,0.86l0,1.72c0,1.15,0,2.29,0,3.42c0,2.27,0,4.5,0,6.71
						c0,4.41-0.01,8.69-0.01,12.78l-0.25-0.25c17.28,0.05,32.14,0.09,42.71,0.12c5.28,0.03,9.48,0.05,12.39,0.07
						c1.43,0.01,2.54,0.02,3.32,0.03c0.36,0.01,0.65,0.01,0.87,0.02C331.92,448.6,332.03,448.61,332.03,448.61
						c0.01,0.01-0.09,0.01-0.27,0.02c-0.21,0-0.49,0.01-0.84,0.02c-0.77,0.01-1.86,0.02-3.27,0.03c-2.9,0.02-7.08,0.04-12.33,0.07
						c-10.61,0.03-25.53,0.07-42.88,0.12l-0.25,0l0-0.25c0-4.09-0.01-8.37-0.01-12.78c0-2.2,0-4.44,0-6.71c0-1.13,0-2.27,0-3.42
						l0-1.72v-0.86v-0.43v-0.22v-0.11v-0.05v-0.03v-0.01v-0.01c-0.06,0.05,0.49-0.5,0.26-0.26c23.17,0.03,44.2,0.05,59.59,0.07
						l0.19,0l0,0.19c-0.04,8.15-0.08,14.75-0.1,19.34c-0.02,2.25-0.04,4-0.05,5.22c-0.01,0.57-0.02,1.02-0.02,1.35
						C332.04,448.47,332.04,448.62,332.03,448.61z"/>
				</g>
				<g>
					<path style="fill:#263238;" d="M304.77,435.43c-0.04,0-0.06-0.23-0.18-0.59c-0.12-0.36-0.38-0.88-0.94-1.27
						c-0.53-0.39-1.39-0.6-2.2-0.29c-0.81,0.29-1.5,1.15-1.49,2.15c-0.01,1,0.68,1.87,1.49,2.16c0.82,0.31,1.67,0.11,2.2-0.29
						c0.55-0.39,0.82-0.91,0.93-1.27C304.71,435.66,304.72,435.43,304.77,435.43c0.03,0,0.09,0.23,0.02,0.64
						c-0.07,0.41-0.3,1.02-0.91,1.52c-0.58,0.49-1.59,0.8-2.59,0.45c-0.99-0.32-1.86-1.37-1.85-2.61c-0.01-1.24,0.86-2.29,1.85-2.61
						c1-0.35,2.01-0.05,2.59,0.44c0.6,0.49,0.84,1.11,0.91,1.52C304.85,435.21,304.8,435.44,304.77,435.43z"/>
				</g>
			</g>
		</g>
		<rect x="48.51" y="358.35" style="fill:#263238;" width="136.79" height="94.89"/>
		<rect x="43.26" y="351.73" style="fill:#263238;" width="390.75" height="9.02"/>
		<rect x="48.51" y="360.75" style="fill:#455A64;" width="12.12" height="92.49"/>
	</g>
</g>
<g id="Character">
	<g>
		<g>
			<g>
				<path style="fill:#263238;" d="M200.43,208.96c-0.05,0-0.06-0.41-0.17-1.15c-0.12-0.72-0.33-1.8-0.99-2.92
					c-0.34-0.54-0.8-1.12-1.46-1.4c-0.65-0.31-1.48-0.17-2.09,0.4c-1.24,1.12-1.77,3.12-1.79,5.07c0.02,1.96,0.55,3.96,1.79,5.07
					c0.61,0.56,1.43,0.71,2.09,0.39c0.66-0.28,1.12-0.86,1.46-1.4c0.66-1.12,0.87-2.2,0.99-2.92
					C200.37,209.37,200.39,208.96,200.43,208.96c0.03,0,0.08,0.41,0.03,1.17c-0.07,0.75-0.22,1.86-0.88,3.08
					c-0.34,0.59-0.82,1.24-1.6,1.61c-0.39,0.18-0.85,0.27-1.32,0.19c-0.46-0.08-0.89-0.31-1.26-0.61c-1.44-1.28-1.97-3.38-2-5.44
					c0.03-2.06,0.56-4.16,2-5.44c0.36-0.31,0.79-0.53,1.26-0.61c0.46-0.08,0.93,0.01,1.32,0.19c0.79,0.37,1.26,1.02,1.61,1.61
					c0.66,1.22,0.81,2.34,0.88,3.08C200.51,208.54,200.46,208.96,200.43,208.96z"/>
			</g>
			<g>
				<g>
					<g>
						<path style="fill:#FFBE9D;" d="M157.26,189.45l-2.96,59.92l25.65,2.42l1.42-14.54c0,0,9.05,2.24,11.8-6.14
							c1.76-5.35,3.32-47.23,3.32-47.23L157.26,189.45z"/>
					</g>
					<g>
						<path style="fill:#263238;" d="M202.02,190.05c-2.19,5.21-10.45,9.67-10.45,9.67l-1.37,13.26c-1.09-0.17-3.69-0.03-3.69-0.03
							c0.66-6.22-7.36-5.01-8.17-0.76c-0.78,4.08,3.86,6.81,3.86,6.81c-3.21,4.92-4.51,7.52-9.06,12.13
							c-4.93,4.99-7.58,5.4-12.66,5.25l-5.6-0.26c0,0-2-4.79-3.46-16.1c-0.7-5.44-4.95-12.57-3.74-21.41
							c3.44-25.14,31.25-20.67,31.25-20.67C189.36,169.85,207.16,177.8,202.02,190.05z"/>
					</g>
				</g>
			</g>
			<g>
				<path style="fill:#263238;" d="M200.43,209.07c0,0.14-2.57,0.39-5.76,0.55c-3.18,0.16-5.77,0.17-5.79,0.03
					c-0.01-0.14,2.56-0.39,5.76-0.55C197.84,208.95,200.43,208.93,200.43,209.07z"/>
			</g>
		</g>
		<g>
			<path style="fill:#FFBE9D;" d="M282.43,279.46l-9.35,5.79l-3.43,8.02v-6.98c0,0,2.54-2.97,4.62-5.2c2.08-2.23,0.59-3.71,0-4.45
				c-0.59-0.74-9.54,9.65-9.54,9.65v5.97c-4.16-5.13-6.1-3.37-6.74-2.43c-0.64,0.93,6.74,7.88,6.74,7.88v2.13l-36.66,19.72
				l-9.65-24.01l-19.71,10.34l11.77,28.49c3.46,8.37,13.52,11.73,21.32,7.13l43.15-25.5l2.88-4.79c0.99-1.65,1.58-3.52,1.71-5.45
				l1.44-21.56C283.62,282.58,282.43,279.46,282.43,279.46z"/>
			<g>
				<path style="fill:#EB996E;" d="M228.24,319.57c0.13,0.05-0.57,2.28-1.57,4.98c-1,2.7-1.92,4.85-2.06,4.8
					c-0.13-0.05,0.57-2.28,1.57-4.98C227.19,321.67,228.11,319.52,228.24,319.57z"/>
			</g>
			<g>
				<path style="fill:#EB996E;" d="M280.95,284.21c0.03,0.08-0.68,0.27-1.7,0.77c-0.5,0.25-1.06,0.63-1.59,1.15
					c-0.51,0.5-0.88,1.24-1.22,2.05c-1.37,3.27-2.58,5.88-2.72,5.83c-0.13-0.06,0.87-2.75,2.24-6.03c0.34-0.82,0.76-1.63,1.37-2.19
					c0.59-0.54,1.21-0.92,1.77-1.14C280.21,284.21,280.94,284.16,280.95,284.21z"/>
			</g>
			<g>
				<path style="fill:#EB996E;" d="M280.86,287.63c-0.01,0.06-0.47-0.02-0.79,0.53c-0.29,0.56-0.67,1.44-1.04,2.38
					c-0.76,1.9-1.17,3.52-1.32,3.49c-0.14-0.02,0.06-1.73,0.83-3.69c0.4-0.98,0.8-1.81,1.23-2.4c0.23-0.3,0.56-0.44,0.78-0.44
					C280.78,287.5,280.87,287.6,280.86,287.63z"/>
			</g>
		</g>
		<g>
			<g>
				<g>
					<g>
						<g>
							<path style="fill:#501FDA;" d="M192.81,302.24l4.19,14.19l26.59-12.04c-0.96-2.97-5.35-16.21-13.77-37.21
								c-4.69-11.7-15.13-20.15-27.56-22.22c-8.7-1.45-18.17-2.58-25.46-2.5c-14.91,0.16-27.73,10.68-30.68,25.3
								c-2.25,11.16,1.69,18.52-0.85,42.93l-0.81,61.36l70.99,2.61L192.81,302.24z"/>
						</g>
					</g>
				</g>
				<path style="fill:#501FDA;" d="M128.56,310.08c0,0-9.86,0.58-13.75-6.89c0,0,10.63-39.3,14.34-43.93L128.56,310.08z"/>
				<g>
					<path style="fill:#263238;" d="M211.16,271.18c0.01,0.03-0.27,0.2-0.84,0.46c-0.59,0.21-1.5,0.48-2.71,0.51
						c-1.2,0.04-2.67-0.17-4.31-0.54c-1.64-0.37-3.47-0.92-5.52-1.26c-1.02-0.19-2.1-0.12-3.22-0.18c-1.11,0.15-2.28,0.21-3.45,0.57
						c-2.35,0.59-4.76,1.64-7.18,2.99c-2.43,1.33-4.89,2.89-7.52,4.42c-2.63,1.52-5.44,3.06-8.61,3.99
						c-3.15,0.94-6.54,1.05-9.55,0.15c-3.02-0.89-5.57-2.53-7.81-4.23c-2.23-1.72-4.17-3.54-6.01-5.21
						c-1.82-1.67-3.58-3.13-5.3-4.32c-3.42-2.41-6.66-3.55-8.97-3.82c-2.32-0.25-3.61,0.08-3.63-0.04
						c-0.01-0.04,0.31-0.12,0.92-0.24c0.62-0.11,1.54-0.19,2.74-0.13c2.39,0.15,5.8,1.23,9.34,3.61c1.77,1.18,3.61,2.63,5.46,4.29
						c1.86,1.64,3.81,3.42,6.01,5.09c2.2,1.65,4.67,3.2,7.51,4.01c2.83,0.82,5.97,0.72,8.98-0.17c3.02-0.88,5.78-2.37,8.39-3.87
						c2.61-1.51,5.1-3.06,7.58-4.39c2.46-1.34,4.96-2.4,7.43-2.98c1.22-0.36,2.46-0.4,3.62-0.54c1.18,0.08,2.32,0.03,3.38,0.25
						c2.11,0.4,3.92,1,5.54,1.42c1.61,0.42,3.01,0.68,4.17,0.7C209.94,271.79,211.12,271.06,211.16,271.18z"/>
				</g>
				<g>
					<path style="fill:#263238;" d="M193.28,320.15c-0.1,0.16-1.49-1.24-4.41-1.6c-1.44-0.2-3.18-0.12-5.08,0.28
						c-1.9,0.39-3.96,1.07-6.2,1.63c-4.52,1.18-8.86,0.86-11.79,0.16c-2.96-0.7-4.61-1.65-4.56-1.75c0.06-0.17,1.79,0.53,4.71,1.03
						c2.9,0.49,7.04,0.69,11.4-0.45c2.19-0.55,4.28-1.21,6.27-1.57c1.99-0.37,3.86-0.37,5.38-0.06c1.52,0.29,2.67,0.88,3.36,1.38
						C193.05,319.72,193.33,320.11,193.28,320.15z"/>
				</g>
				<g>
					<path style="fill:#263238;" d="M194.02,356.79c0.04,0.05-0.26,0.46-0.94,1.08c-0.68,0.62-1.73,1.47-3.22,2.22
						c-1.48,0.75-3.42,1.43-5.67,1.44c-2.25,0.03-4.64-0.64-6.96-1.56c-2.33-0.91-4.47-1.93-6.48-2.5
						c-2.02-0.58-3.92-0.77-5.48-0.64c-1.57,0.13-2.78,0.6-3.54,1.04c-0.78,0.43-1.14,0.78-1.21,0.71
						c-0.03-0.03,0.24-0.48,0.99-1.05c0.74-0.57,2.01-1.19,3.68-1.43c1.67-0.24,3.69-0.11,5.82,0.45c2.15,0.56,4.31,1.57,6.6,2.46
						c2.28,0.9,4.52,1.55,6.59,1.57c2.07,0.04,3.91-0.52,5.36-1.15C192.45,358.11,193.9,356.64,194.02,356.79z"/>
				</g>
			</g>
			<g style="opacity:0.3;">
				<path d="M116.98,310.77c9.3,1.9,18.84-0.02,28.32-0.58c5.74-0.34,12.12-0.96,16.66,2.57c3.6,2.8,5.05,7.51,6.09,11.95
					c3.96,16.93,4.68,32.07,5.57,49.43l-45.99-0.99L116.98,310.77z"/>
			</g>
			<polygon style="opacity:0.3;" points="129.15,278.87 131.14,307.55 125.08,307.55 			"/>
		</g>
		<path style="fill:#263238;" d="M142.07,372.06l91.29,3.23c14.82,0.52,26.5,12.81,26.26,27.64l-0.81,51.82h-33.48l-2.15-44.68
			l-81.12-2.13V372.06z"/>
	</g>
	<g>
		<g>
			<rect x="163.71" y="419.43" style="fill:#455A64;" width="8.98" height="32.87"/>
			<g>
				<path style="fill:#455A64;" d="M88.36,314.99v79.2c0,10.39,8.42,18.81,18.81,18.81h52.74v-98.01c0-4.63-3.75-8.38-8.38-8.38
					H96.74C92.11,306.61,88.36,310.36,88.36,314.99z"/>
				<path style="fill:#455A64;" d="M230.89,419.43H102.45l0,0c0-7.7,6.24-13.94,13.94-13.94h100.55
					C224.65,405.49,230.89,411.73,230.89,419.43L230.89,419.43z"/>
			</g>
			<g>
				<path style="fill:#263238;" d="M159.91,403.64c0,0,0.13,0.84-0.2,2.33c-0.32,1.46-1.26,3.62-3.44,5.3
					c-1.08,0.82-2.46,1.53-4.06,1.8c-0.79,0.16-1.64,0.16-2.47,0.17c-0.84,0-1.71,0.01-2.59,0.01c-3.55,0.01-7.45,0.02-11.54,0.03
					c-8.16-0.02-15.54-0.04-20.97-0.05c-2.63-0.03-4.78-0.06-6.35-0.08c-0.7-0.02-1.28-0.03-1.73-0.05c-0.39-0.02-0.6-0.03-0.6-0.05
					c0-0.02,0.21-0.04,0.6-0.05c0.45-0.01,1.02-0.03,1.73-0.05c1.57-0.02,3.72-0.05,6.35-0.09c5.43-0.03,12.81-0.06,20.97-0.1
					c4.09,0,7.99,0.01,11.54,0.01c0.89,0,1.75,0.01,2.59,0.01c0.85,0,1.64,0.01,2.4-0.14c1.53-0.24,2.85-0.89,3.91-1.67
					c2.13-1.58,3.1-3.65,3.47-5.06C159.89,404.48,159.84,403.63,159.91,403.64z"/>
			</g>
			<g>
				<path style="fill:#263238;" d="M176.07,419.7c0,0.14-3.53,0.26-7.88,0.26c-4.35,0-7.88-0.12-7.88-0.26s3.53-0.26,7.88-0.26
					C172.55,419.44,176.07,419.56,176.07,419.7z"/>
			</g>
		</g>
		<g>
			<path style="fill:#455A64;" d="M215.15,413.7c-0.04,0-0.12-0.33-0.24-0.97c-0.13-0.64-0.29-1.59-0.5-2.81
				c-0.41-2.44-0.97-5.98-1.64-10.36c-0.36-2.18-0.65-4.61-1.13-7.14c-0.12-0.63-0.25-1.27-0.38-1.92
				c-0.19-0.64-0.38-1.28-0.57-1.94c-0.1-0.33-0.19-0.66-0.29-0.99c-0.13-0.32-0.25-0.65-0.38-0.98c-0.26-0.65-0.5-1.32-0.79-1.98
				c-1.21-2.62-2.81-5.21-4.78-7.65c-2-2.42-4.44-4.61-7.19-6.48c-2.75-1.86-5.71-3.3-8.72-4.2c-3-0.91-6-1.49-8.89-1.53
				c-5.82-0.13-11.12-0.09-15.54-0.16c-4.43-0.05-8.01-0.1-10.49-0.17c-1.24-0.03-2.2-0.06-2.85-0.1c-0.65-0.03-0.99-0.07-0.99-0.11
				c0-0.04,0.34-0.07,0.99-0.1c0.65-0.03,1.61-0.07,2.85-0.1c2.48-0.06,6.06-0.12,10.49-0.17c4.43-0.02,9.69-0.14,15.57-0.06
				c2.97,0.02,6.07,0.59,9.16,1.51c3.1,0.92,6.16,2.39,9,4.31c2.83,1.93,5.35,4.19,7.39,6.69c2.03,2.52,3.65,5.2,4.87,7.91
				c0.29,0.68,0.53,1.37,0.8,2.05c0.13,0.34,0.26,0.67,0.38,1.01c0.1,0.34,0.19,0.68,0.29,1.02c0.19,0.68,0.38,1.34,0.56,2
				c0.12,0.67,0.24,1.33,0.36,1.98c0.46,2.59,0.7,4.99,1.01,7.19c0.58,4.39,1.03,7.95,1.31,10.41c0.14,1.23,0.25,2.19,0.3,2.84
				C215.17,413.35,215.19,413.69,215.15,413.7z"/>
		</g>
	</g>
</g>
<g id="Plant">
	<g>
		<g>
			<path style="fill:#E8505B;" d="M53.07,317.86c0,0-1.61,4.54,1.49,7.81h6.48C61.03,325.67,60.43,318.35,53.07,317.86z"/>
			<path style="opacity:0.4;" d="M53.07,317.86c0,0-1.61,4.54,1.49,7.81h6.48C61.03,325.67,60.43,318.35,53.07,317.86z"/>
			<path style="fill:#501FDA;" d="M64.06,308.53c-0.27-0.32-5.78,8.32-2.68,17.14h6.08C67.45,325.67,69.83,315.41,64.06,308.53z"/>
			<path style="fill:#501FDA;" d="M74.83,317.86c0,0-6.94,0.33-7.38,7.81h6.08C73.52,325.67,76.18,321.93,74.83,317.86z"/>
			<path style="fill:#455A64;" d="M54.05,325.33c0,0-7.02,4.55-5.46,13.53c1.56,8.98,11.06,12.88,11.06,12.88h10.54
				c0,0,10.72-4.71,10.46-14.47c-0.26-9.76-6.65-11.79-6.65-11.79L54.05,325.33z"/>
		</g>
		<g>
			<path style="fill:#263238;" d="M80.6,336.18c-0.05,0.03-0.2-0.49-0.87-1.08c-0.66-0.58-1.93-1.16-3.52-1.01
				c-1.6,0.15-3.32,1.09-5.15,2.24c-0.93,0.56-1.92,1.16-3.06,1.57c-1.13,0.43-2.44,0.59-3.71,0.37c-2.57-0.43-4.62-1.81-6.54-2.74
				c-1.9-0.96-3.81-1.53-5.39-1.3c-1.59,0.21-2.73,0.98-3.29,1.67c-0.58,0.69-0.66,1.22-0.72,1.2c-0.02,0,0-0.13,0.07-0.37
				c0.08-0.23,0.21-0.58,0.49-0.96c0.54-0.76,1.71-1.64,3.39-1.91c1.69-0.3,3.71,0.28,5.65,1.23c1.96,0.92,4,2.25,6.41,2.66
				c1.2,0.21,2.38,0.06,3.46-0.34c1.08-0.39,2.06-0.96,2.98-1.51c1.83-1.12,3.65-2.08,5.36-2.19c1.71-0.12,3.03,0.56,3.69,1.23
				c0.34,0.33,0.52,0.65,0.62,0.88C80.59,336.05,80.62,336.17,80.6,336.18z"/>
		</g>
		<g>
			<path style="fill:#263238;" d="M80.75,338.53c-0.05,0.03-0.2-0.49-0.86-1.08c-0.64-0.58-1.9-1.17-3.48-1.01
				c-1.59,0.15-3.29,1.09-5.09,2.24c-0.92,0.56-1.9,1.16-3.02,1.57c-1.12,0.43-2.42,0.6-3.68,0.37c-2.55-0.44-4.57-1.82-6.47-2.74
				c-1.88-0.96-3.77-1.53-5.34-1.29c-1.58,0.21-2.7,0.99-3.24,1.67c-0.57,0.69-0.64,1.22-0.7,1.19c-0.02,0,0-0.13,0.06-0.37
				c0.07-0.23,0.2-0.57,0.48-0.95c0.53-0.76,1.69-1.64,3.35-1.91c1.68-0.3,3.68,0.27,5.6,1.23c1.94,0.92,3.95,2.25,6.34,2.66
				c1.19,0.21,2.36,0.06,3.43-0.34c1.07-0.39,2.03-0.96,2.95-1.51c1.81-1.12,3.61-2.08,5.31-2.19c1.7-0.12,3.01,0.57,3.65,1.23
				c0.33,0.33,0.51,0.65,0.61,0.87C80.73,338.4,80.76,338.52,80.75,338.53z"/>
		</g>
		<g>
			<path style="fill:#263238;" d="M53.42,338.47c-0.04-0.06,0.28-0.24,0.65,0.07c0.17,0.14,0.33,0.47,0.2,0.79
				c-0.11,0.31-0.42,0.58-0.84,0.56c-0.41-0.04-0.68-0.35-0.76-0.65c-0.09-0.33,0.07-0.63,0.23-0.77c0.36-0.3,0.67-0.17,0.65-0.11
				c0,0.07-0.22,0.12-0.37,0.35c-0.07,0.12-0.1,0.26-0.05,0.39c0.05,0.14,0.2,0.27,0.34,0.27c0.13,0.01,0.3-0.1,0.36-0.22
				c0.07-0.12,0.04-0.25-0.03-0.36C53.66,338.55,53.43,338.54,53.42,338.47z"/>
		</g>
		<g>
			<path style="fill:#263238;" d="M65.35,334.67c-0.04-0.06,0.28-0.24,0.65,0.07c0.17,0.14,0.33,0.47,0.2,0.79
				c-0.11,0.31-0.42,0.58-0.84,0.56c-0.41-0.04-0.68-0.35-0.76-0.65c-0.09-0.33,0.07-0.63,0.23-0.77c0.36-0.3,0.67-0.17,0.65-0.11
				c0,0.07-0.22,0.12-0.37,0.35c-0.07,0.12-0.1,0.26-0.05,0.39c0.05,0.14,0.2,0.27,0.34,0.27c0.13,0.01,0.3-0.1,0.36-0.22
				c0.07-0.12,0.04-0.25-0.03-0.36C65.59,334.75,65.36,334.74,65.35,334.67z"/>
		</g>
		<g>
			<path style="fill:#263238;" d="M76.92,338.64c-0.04-0.06,0.28-0.24,0.65,0.07c0.17,0.14,0.33,0.47,0.2,0.79
				c-0.11,0.31-0.42,0.58-0.84,0.56c-0.41-0.04-0.68-0.35-0.76-0.65c-0.09-0.33,0.07-0.63,0.23-0.77c0.36-0.3,0.67-0.17,0.65-0.11
				c0,0.07-0.22,0.12-0.37,0.35c-0.07,0.12-0.1,0.26-0.05,0.39c0.05,0.14,0.2,0.27,0.34,0.27c0.13,0.01,0.3-0.1,0.36-0.22
				c0.07-0.12,0.04-0.25-0.03-0.36C77.16,338.73,76.94,338.71,76.92,338.64z"/>
		</g>
	</g>
</g>
<g id="Coffee">
	<g>
		<polygon style="fill:#455A64;" points="381.32,316.15 384.75,351.73 402.09,351.73 406.24,316.15 		"/>
		<path style="fill:#263238;" d="M381.32,311.55c0,0-1.44,1.45-1.63,4.7h28.18c0,0,0.54-2.89-1.63-4.7H381.32z"/>
		<polygon style="fill:#263238;" points="384.53,308.29 383.58,311.81 404.85,311.97 403.44,308.25 		"/>
		<path style="fill:#501FDA;" d="M380.96,325.06c0,0.33,2.06,17.91,2.06,17.91h21.2l2.02-17.91H380.96z"/>
	</g>
</g>
</svg>
