<?xml version="1.0" encoding="utf-8"?>
<!-- Generator: Adobe Illustrator 25.0.0, SVG Export Plug-In . SVG Version: 6.00 Build 0)  -->
<svg version="1.1" id="Layer_1" xmlns="http://www.w3.org/2000/svg" xmlns:xlink="http://www.w3.org/1999/xlink" x="0px" y="0px"
	 viewBox="0 0 2000 2000" style="enable-background:new 0 0 2000 2000;" xml:space="preserve">
<g>
	<ellipse style="fill:#501FDA;" cx="967.1" cy="1018.04" rx="481.22" ry="480.83"/>
	<rect x="600" y="617.26" style="fill:none;" width="800" height="800"/>
	<g>
		<path style="fill:#FFFFFF;" d="M902.41,832.24c20.15,46.5-0.49,100.22-0.49,100.22s-53.32-21.66-73.47-68.16
			c-20.15-46.5,0.49-100.22,0.49-100.22S882.26,785.74,902.41,832.24z"/>
		<path style="fill:#FFFFFF;" d="M943.6,996.97c24.44,33.88,17.31,80.79,17.31,80.79s-46.76-8.03-71.2-41.91
			c-24.44-33.88-17.31-80.79-17.31-80.79S919.16,963.09,943.6,996.97z"/>
		<path style="fill:#FFFFFF;" d="M819.57,908.96c30.64,26.06,34.75,71.57,34.75,71.57s-45.57,3.24-76.21-22.82
			c-30.64-26.06-34.75-71.57-34.75-71.57S788.93,882.9,819.57,908.96z"/>
		<path style="fill:#FFFFFF;" d="M977.93,782.56c7.23,41.15-19.64,80.25-19.64,80.25s-38.59-27.61-45.81-68.76
			c-7.23-41.15,19.64-80.25,19.64-80.25S970.7,741.41,977.93,782.56z"/>
		<path style="fill:#FFFFFF;" d="M974.16,925.45c3.23,28.35-17.14,53.94-17.14,53.94s-25.61-20.36-28.84-48.71
			c-3.23-28.35,17.14-53.94,17.14-53.94S970.93,897.11,974.16,925.45z"/>
		<path style="fill:#FFFFFF;" d="M1169.4,889.21c-18.25,37.58-62.79,53.61-62.79,53.61s-14.96-44.91,3.29-82.49
			c18.25-37.58,62.79-53.61,62.79-53.61S1187.65,851.63,1169.4,889.21z"/>
		<path style="fill:#FFFFFF;" d="M1068.36,819.67c-23.79,34.36-70.28,43.39-70.28,43.39s-7.91-46.69,15.88-81.05
			c23.79-34.36,70.28-43.39,70.28-43.39S1092.15,785.31,1068.36,819.67z"/>
		<path style="fill:#FFFFFF;" d="M1133.48,1038.44c39.05,14.85,58.89,57.95,58.89,57.95s-43.47,19.02-82.52,4.16
			c-39.05-14.85-58.89-57.95-58.89-57.95S1094.43,1023.59,1133.48,1038.44z"/>
		<path style="fill:#FFFFFF;" d="M1076.87,1102.43c26.16,32.57,21.46,79.79,21.46,79.79s-47.11-5.6-73.27-38.18
			c-26.16-32.57-21.46-79.79-21.46-79.79S1050.71,1069.86,1076.87,1102.43z"/>
		<path style="fill:#FFFFFF;" d="M819.09,1019.75c40.91,8.45,67.36,47.84,67.36,47.84s-39.89,25.69-80.8,17.25
			S738.28,1037,738.28,1037S778.17,1011.3,819.09,1019.75z"/>
		<path style="fill:#FFFFFF;" d="M854.6,1113.57c27.57-21.16,66.75-16.38,66.75-16.38s-5.52,39.08-33.09,60.24
			c-27.57,21.16-66.75,16.38-66.75,16.38S827.03,1134.73,854.6,1113.57z"/>
		<path style="fill:#FFFFFF;" d="M1189.28,1015.2c-47.95,18.09-101.21-5.39-101.21-5.39s24.49-52.8,72.44-70.89
			c47.95-18.09,101.21,5.39,101.21,5.39S1237.23,997.11,1189.28,1015.2z"/>
		<path style="fill:#FFFFFF;" d="M1073.58,966.22c-22,51.73-80.97,76.18-80.97,76.18s-23.32-59.43-1.32-111.17
			c22-51.73,80.97-76.18,80.97-76.18S1095.58,914.48,1073.58,966.22z"/>
		<path style="fill:#F7941E;" d="M996.82,1320.71h-59.44c14.7-71.01,22.63-142.42,19.81-214.49H977
			C976.85,1192.37,983.46,1263.86,996.82,1320.71z"/>
	</g>
	<g>
		<g>
		</g>
	</g>
</g>
</svg>
