<?xml version="1.0" encoding="utf-8"?>
<!-- Generator: Adobe Illustrator 25.0.0, SVG Export Plug-In . SVG Version: 6.00 Build 0)  -->
<svg version="1.1" id="Layer_1" xmlns="http://www.w3.org/2000/svg" xmlns:xlink="http://www.w3.org/1999/xlink" x="0px" y="0px"
	 viewBox="0 0 2000 2000" style="enable-background:new 0 0 2000 2000;" xml:space="preserve">
<g>
	<g>
		<path style="fill:#501FDA;" d="M712.89,402.71c56.87,127.52-1.37,274.87-1.37,274.87s-150.46-59.41-207.33-186.94
			s1.37-274.87,1.37-274.87S656.01,275.19,712.89,402.71z"/>
		<path style="fill:#501FDA;" d="M829.13,854.54c68.97,92.93,48.84,221.58,48.84,221.58s-131.96-22.02-200.93-114.94
			S628.2,739.59,628.2,739.59S760.16,761.61,829.13,854.54z"/>
		<path style="fill:#501FDA;" d="M479.12,613.14c86.47,71.49,98.07,196.28,98.07,196.28s-128.6,8.89-215.07-62.6
			c-86.47-71.49-98.07-196.28-98.07-196.28S392.65,541.66,479.12,613.14z"/>
		<path style="fill:#501FDA;" d="M926,266.45c20.4,112.86-55.42,220.11-55.42,220.11S761.69,410.84,741.3,297.99
			s55.42-220.11,55.42-220.11S905.6,153.6,926,266.45z"/>
		<path style="fill:#501FDA;" d="M915.35,658.38c9.11,77.74-48.37,147.95-48.37,147.95s-72.27-55.84-81.38-133.58
			c-9.11-77.74,48.37-147.95,48.37-147.95S906.24,580.63,915.35,658.38z"/>
		<path style="fill:#501FDA;" d="M1466.31,558.97C1414.82,662.05,1289.13,706,1289.13,706s-42.2-123.17,9.29-226.25
			c51.49-103.08,177.18-147.03,177.18-147.03S1517.8,455.9,1466.31,558.97z"/>
		<path style="fill:#501FDA;" d="M1181.17,368.24c-67.14,94.24-198.32,118.99-198.32,118.99s-22.32-128.05,44.82-222.3
			c67.14-94.24,198.32-118.99,198.32-118.99S1248.31,274,1181.17,368.24z"/>
		<path style="fill:#501FDA;" d="M1364.95,968.27c110.19,40.74,166.18,158.94,166.18,158.94s-122.66,52.16-232.86,11.42
			s-166.18-158.94-166.18-158.94S1254.76,927.54,1364.95,968.27z"/>
		<path style="fill:#501FDA;" d="M1205.2,1143.77c73.82,89.34,60.55,218.83,60.55,218.83s-132.95-15.36-206.77-104.71
			c-73.82-89.34-60.55-218.83-60.55-218.83S1131.38,1054.43,1205.2,1143.77z"/>
		<path style="fill:#501FDA;" d="M477.75,917c115.46,23.17,190.1,131.2,190.1,131.2s-112.56,70.47-228.02,47.3
			c-115.46-23.17-190.1-131.2-190.1-131.2S362.29,893.83,477.75,917z"/>
		<path style="fill:#501FDA;" d="M577.98,1174.33c77.8-58.03,188.36-44.94,188.36-44.94s-15.58,107.19-93.38,165.22
			c-77.8,58.03-188.36,44.94-188.36,44.94S500.17,1232.37,577.98,1174.33z"/>
		<path style="fill:#501FDA;" d="M1522.4,904.52c-135.32,49.61-285.61-14.77-285.61-14.77s69.1-144.82,204.42-194.43
			c135.32-49.61,285.61,14.77,285.61,14.77S1657.72,854.91,1522.4,904.52z"/>
		<path style="fill:#501FDA;" d="M1195.92,770.18c-62.07,141.89-228.5,208.94-228.5,208.94s-65.8-163.01-3.73-304.9
			c62.07-141.89,228.5-208.94,228.5-208.94S1257.99,628.28,1195.92,770.18z"/>
		<path style="fill:#F7941E;" d="M979.29,1742.46H811.57c41.48-194.76,63.87-390.62,55.91-588.27h55.91
			C922.96,1390.44,941.59,1586.53,979.29,1742.46z"/>
	</g>
</g>
</svg>
